<svg width="400" height="300" viewBox="0 0 400 300" xmlns="http://www.w3.org/2000/svg">
  <defs>
    <linearGradient id="bg" x1="0%" y1="0%" x2="100%" y2="100%">
      <stop offset="0%" stop-color="#0B1F3B" />
      <stop offset="100%" stop-color="#0b1020" />
    </linearGradient>
  </defs>
  <rect width="400" height="300" fill="url(#bg)" />
  <rect x="26" y="28" width="348" height="244" rx="18" fill="rgba(255,255,255,0.04)" stroke="#2E2E2E" stroke-width="2" />

  <rect x="44" y="60" width="312" height="92" rx="14" fill="#0f172a" stroke="#2E2E2E" />
  <rect x="60" y="78" width="230" height="16" rx="6" fill="#C9A24D" />
  <rect x="60" y="100" width="200" height="12" rx="6" fill="rgba(255,255,255,0.12)" />
  <rect x="60" y="120" width="150" height="26" rx="9" fill="#ffffff" stroke="#C9A24D" stroke-width="1.5" />

  <g transform="translate(90 168)" stroke="#C9A24D" stroke-width="2" fill="none">
    <line x1="0" y1="0" x2="60" y2="0" />
    <line x1="10" y1="0" x2="10" y2="48" />
    <line x1="50" y1="0" x2="50" y2="48" />
    <line x1="0" y1="48" x2="60" y2="48" />
    <line x1="30" y1="-12" x2="30" y2="60" />
    <circle cx="30" cy="16" r="4" fill="#ffffff" stroke="none" />
  </g>
  <g transform="translate(220 168)" stroke="#C9A24D" stroke-width="2" fill="none">
    <line x1="0" y1="0" x2="60" y2="0" />
    <line x1="8" y1="0" x2="8" y2="44" />
    <line x1="52" y1="0" x2="52" y2="44" />
    <line x1="0" y1="44" x2="60" y2="44" />
    <line x1="30" y1="-14" x2="30" y2="56" />
    <circle cx="30" cy="14" r="4" fill="#ffffff" stroke="none" />
  </g>

  <text x="200" y="46" text-anchor="middle" fill="#ffffff" font-family="Inter, Arial, sans-serif" font-size="18" font-weight="700">Site para Advogados</text>
  <text x="120" y="240" text-anchor="middle" fill="#ffffff" font-family="Inter, Arial, sans-serif" font-size="11">Servicos</text>
  <text x="280" y="240" text-anchor="middle" fill="#ffffff" font-family="Inter, Arial, sans-serif" font-size="11">Agendar</text>
  <text x="200" y="262" text-anchor="middle" fill="#C9A24D" font-family="Inter, Arial, sans-serif" font-size="11">GDPR ? Calendly ? Seguro</text>
</svg>
