<svg width="400" height="300" viewBox="0 0 400 300" xmlns="http://www.w3.org/2000/svg">
  <defs>
    <linearGradient id="bg" x1="0%" y1="0%" x2="100%" y2="100%">
      <stop offset="0%" stop-color="#0f172a" />
      <stop offset="100%" stop-color="#0b1020" />
    </linearGradient>
    <linearGradient id="accent" x1="0%" y1="0%" x2="100%" y2="0%">
      <stop offset="0%" stop-color="#38bdf8" />
      <stop offset="100%" stop-color="#22c55e" />
    </linearGradient>
  </defs>
  <rect width="400" height="300" fill="url(#bg)" />
  <rect x="26" y="28" width="348" height="244" rx="18" fill="rgba(255,255,255,0.06)" stroke="#1f3b57" stroke-width="2" />

  <rect x="46" y="56" width="308" height="90" rx="14" fill="rgba(17,24,39,0.9)" stroke="#1f3b57" />
  <text x="66" y="80" fill="#38bdf8" font-family="Inter, Arial, sans-serif" font-size="13" font-weight="700">API REST</text>
  <text x="66" y="100" fill="#cbd5e1" font-family="Inter, Arial, sans-serif" font-size="12">/users</text>
  <text x="66" y="118" fill="#cbd5e1" font-family="Inter, Arial, sans-serif" font-size="12">/auth/login</text>
  <text x="66" y="136" fill="#cbd5e1" font-family="Inter, Arial, sans-serif" font-size="12">/docs</text>
  <rect x="230" y="84" width="110" height="32" rx="10" fill="url(#accent)" />
  <text x="285" y="104" text-anchor="middle" fill="#0b1020" font-family="Inter, Arial, sans-serif" font-size="12" font-weight="700">JWT Bearer</text>

  <rect x="60" y="170" width="90" height="72" rx="10" fill="#0f172a" stroke="#38bdf8" />
  <rect x="170" y="170" width="90" height="72" rx="10" fill="#0f172a" stroke="#a855f7" />
  <rect x="280" y="170" width="90" height="72" rx="10" fill="#0f172a" stroke="#22c55e" />

  <text x="105" y="198" text-anchor="middle" fill="#38bdf8" font-family="Inter, Arial, sans-serif" font-size="12" font-weight="700">Auth</text>
  <text x="215" y="198" text-anchor="middle" fill="#a855f7" font-family="Inter, Arial, sans-serif" font-size="12" font-weight="700">CRUD</text>
  <text x="325" y="198" text-anchor="middle" fill="#22c55e" font-family="Inter, Arial, sans-serif" font-size="12" font-weight="700">Docs</text>

  <text x="105" y="218" text-anchor="middle" fill="#cbd5e1" font-family="Inter, Arial, sans-serif" font-size="10.5">JWT</text>
  <text x="215" y="218" text-anchor="middle" fill="#cbd5e1" font-family="Inter, Arial, sans-serif" font-size="10.5">/users</text>
  <text x="325" y="218" text-anchor="middle" fill="#cbd5e1" font-family="Inter, Arial, sans-serif" font-size="10.5">Swagger</text>
</svg>
