<svg xmlns="http://www.w3.org/2000/svg" viewBox="0 0 240 160" role="img" aria-labelledby="title desc">
  <title id="title">Catálogo de Produtos</title>
  <desc id="desc">Ícone minimalista com cartões de produto e gráfico.</desc>
  <defs>
    <linearGradient id="g" x1="0" y1="0" x2="1" y2="1">
      <stop offset="0%" stop-color="#38bdf8"/>
      <stop offset="100%" stop-color="#7c3aed"/>
    </linearGradient>
  </defs>
  <rect x="12" y="12" width="216" height="136" rx="16" fill="#0b132b"/>
  <rect x="22" y="22" width="196" height="116" rx="12" fill="#0f1f3f" stroke="#1f2b44" stroke-width="3"/>
  <rect x="40" y="46" width="60" height="68" rx="10" fill="url(#g)" opacity="0.9"/>
  <rect x="110" y="46" width="80" height="18" rx="6" fill="#13294b"/>
  <rect x="110" y="70" width="80" height="12" rx="5" fill="#13294b"/>
  <rect x="110" y="88" width="80" height="12" rx="5" fill="#13294b"/>
  <polyline points="40,124 70,94 90,110 120,82 140,98 170,66 186,78" fill="none" stroke="#4ade80" stroke-width="5" stroke-linecap="round" stroke-linejoin="round"/>
  <circle cx="70" cy="94" r="5" fill="#4ade80"/>
  <circle cx="120" cy="82" r="5" fill="#4ade80"/>
  <circle cx="140" cy="98" r="5" fill="#4ade80"/>
  <circle cx="170" cy="66" r="5" fill="#4ade80"/>
</svg>
