<svg width="400" height="300" viewBox="0 0 400 300" xmlns="http://www.w3.org/2000/svg">
  <defs>
    <linearGradient id="bg" x1="0%" y1="0%" x2="100%" y2="100%">
      <stop offset="0%" stop-color="#0ea5e9" />
      <stop offset="100%" stop-color="#0f172a" />
    </linearGradient>
    <linearGradient id="card" x1="0%" y1="0%" x2="100%" y2="100%">
      <stop offset="0%" stop-color="#111c2f" />
      <stop offset="100%" stop-color="#0b1220" />
    </linearGradient>
  </defs>
  <rect width="400" height="300" fill="url(#bg)" />
  <rect x="26" y="30" width="348" height="240" rx="18" fill="rgba(255,255,255,0.06)" stroke="#1f3b57" stroke-width="2" />
  <g>
    <rect x="52" y="70" width="296" height="170" rx="14" fill="url(#card)" stroke="#1f3b57" stroke-width="1.5" />
    <rect x="62" y="82" width="276" height="40" rx="10" fill="rgba(56,189,248,0.16)" stroke="#38bdf8" stroke-width="1" />
    <rect x="62" y="128" width="180" height="28" rx="8" fill="rgba(168,85,247,0.14)" stroke="#a855f7" stroke-width="1" />
    <rect x="62" y="162" width="210" height="28" rx="8" fill="rgba(34,197,94,0.16)" stroke="#22c55e" stroke-width="1" />
    <rect x="62" y="196" width="240" height="28" rx="8" fill="rgba(56,189,248,0.12)" />
    <circle cx="330" cy="102" r="10" fill="#22c55e" />
    <circle cx="306" cy="102" r="10" fill="#f59e0b" />
  </g>
  <g font-family="Inter, Arial, sans-serif" fill="#e5e7eb" font-size="18" font-weight="700">
    <text x="200" y="56" text-anchor="middle">Chat em Tempo Real</text>
  </g>
  <g font-family="Inter, Arial, sans-serif" fill="#cbd5e1" font-size="13">
    <text x="82" y="107">#geral</text>
    <text x="82" y="149">#suporte</text>
    <text x="82" y="183">#devs</text>
    <text x="82" y="217">Ficheiro enviado.pdf</text>
  </g>
  <g font-family="Inter, Arial, sans-serif" fill="#38bdf8" font-size="32" font-weight="700">
    <text x="300" y="186" text-anchor="middle">??</text>
  </g>
</svg>
