<svg width="400" height="300" xmlns="http://www.w3.org/2000/svg">
  <defs>
    <linearGradient id="bg" x1="0%" y1="0%" x2="0%" y2="100%">
      <stop offset="0%" stop-color="#0ea5e9" stop-opacity="1" />
      <stop offset="100%" stop-color="#0f172a" stop-opacity="1" />
    </linearGradient>
    <linearGradient id="card" x1="0%" y1="0%" x2="100%" y2="100%">
      <stop offset="0%" stop-color="#0b253f" stop-opacity="0.9" />
      <stop offset="100%" stop-color="#0d324f" stop-opacity="0.9" />
    </linearGradient>
  </defs>
  <rect width="400" height="300" fill="url(#bg)" />
  <rect x="30" y="30" width="340" height="240" rx="18" fill="rgba(255,255,255,0.08)" stroke="#1f3b57" stroke-width="2" />
  <rect x="55" y="60" width="90" height="180" rx="12" fill="url(#card)" />
  <rect x="155" y="60" width="90" height="180" rx="12" fill="url(#card)" />
  <rect x="255" y="60" width="90" height="180" rx="12" fill="url(#card)" />
  <rect x="70" y="80" width="60" height="20" rx="6" fill="#22c55e" opacity="0.9" />
  <rect x="170" y="100" width="60" height="20" rx="6" fill="#38bdf8" opacity="0.9" />
  <rect x="270" y="120" width="60" height="20" rx="6" fill="#a855f7" opacity="0.85" />
  <rect x="70" y="115" width="50" height="12" rx="6" fill="#e2e8f0" opacity="0.7" />
  <rect x="70" y="135" width="55" height="12" rx="6" fill="#cbd5e1" opacity="0.7" />
  <rect x="170" y="135" width="50" height="12" rx="6" fill="#e2e8f0" opacity="0.7" />
  <rect x="170" y="155" width="60" height="12" rx="6" fill="#cbd5e1" opacity="0.7" />
  <rect x="270" y="155" width="50" height="12" rx="6" fill="#e2e8f0" opacity="0.7" />
  <rect x="270" y="175" width="55" height="12" rx="6" fill="#cbd5e1" opacity="0.7" />
  <circle cx="110" cy="210" r="10" fill="#22c55e" />
  <circle cx="210" cy="210" r="10" fill="#38bdf8" />
  <circle cx="310" cy="210" r="10" fill="#a855f7" />
  <text x="200" y="45" text-anchor="middle" fill="#e2e8f0" font-family="Inter, Arial, sans-serif" font-size="18" font-weight="700">CRM Pipeline</text>
  <text x="200" y="265" text-anchor="middle" fill="#cbd5e1" font-family="Inter, Arial, sans-serif" font-size="14">Leads | Negocios | Fechados</text>
</svg>
