<svg xmlns="http://www.w3.org/2000/svg" viewBox="0 0 200 120" fill="none">
  <rect width="200" height="120" rx="12" fill="#0a0d14"/>
  <rect x="8" y="8" width="184" height="104" rx="10" fill="#0f1624" stroke="#1f2a3a" stroke-width="2"/>
  <rect x="24" y="70" width="152" height="18" rx="9" fill="#121a2c" stroke="#1f2a3a"/>
  <rect x="36" y="64" width="128" height="8" rx="4" fill="#6ad1ff"/>
  <rect x="28" y="46" width="30" height="18" rx="6" fill="#ffc857"/>
  <rect x="142" y="46" width="30" height="18" rx="6" fill="#ffc857"/>
  <rect x="68" y="40" width="12" height="28" rx="6" fill="#7a5bff"/>
  <rect x="120" y="40" width="12" height="28" rx="6" fill="#7a5bff"/>
  <path d="M74 82c2-9 10-16 26-16s24 7 26 16" stroke="#e8ecf5" stroke-width="3" stroke-linecap="round"/>
  <circle cx="76" cy="90" r="8" fill="#0a0d14" stroke="#6ad1ff" stroke-width="3"/>
  <circle cx="124" cy="90" r="8" fill="#0a0d14" stroke="#6ad1ff" stroke-width="3"/>
  <path d="M56 56h12v6H56zM132 56h12v6h-12z" fill="#0a0d14"/>
</svg>
