<svg width="400" height="300" viewBox="0 0 400 300" xmlns="http://www.w3.org/2000/svg">
  <defs>
    <linearGradient id="bg" x1="0%" y1="0%" x2="100%" y2="100%">
      <stop offset="0%" stop-color="#0f172a" />
      <stop offset="100%" stop-color="#111827" />
    </linearGradient>
    <linearGradient id="panel" x1="0%" y1="0%" x2="100%" y2="0%">
      <stop offset="0%" stop-color="#22d3ee" stop-opacity="0.12" />
      <stop offset="100%" stop-color="#38bdf8" stop-opacity="0.18" />
    </linearGradient>
  </defs>
  <rect width="400" height="300" fill="url(#bg)" />
  <rect x="24" y="24" width="352" height="252" rx="18" fill="#0b1220" stroke="#1f2a44" stroke-width="2" />
  <rect x="44" y="60" width="312" height="180" rx="14" fill="url(#panel)" stroke="#1f3b57" stroke-width="1.5" />
  <rect x="64" y="80" width="80" height="140" rx="10" fill="#0f172a" stroke="#38bdf8" stroke-width="1.5" />
  <rect x="160" y="80" width="80" height="140" rx="10" fill="#0f172a" stroke="#22d3ee" stroke-width="1.5" />
  <rect x="256" y="80" width="80" height="140" rx="10" fill="#0f172a" stroke="#38bdf8" stroke-width="1.5" />
  <rect x="74" y="100" width="50" height="12" rx="6" fill="#22c55e" />
  <rect x="74" y="122" width="60" height="10" rx="5" fill="#e2e8f0" opacity="0.7" />
  <rect x="74" y="140" width="55" height="10" rx="5" fill="#cbd5e1" opacity="0.7" />
  <rect x="170" y="115" width="50" height="12" rx="6" fill="#38bdf8" />
  <rect x="170" y="137" width="60" height="10" rx="5" fill="#e2e8f0" opacity="0.7" />
  <rect x="170" y="155" width="55" height="10" rx="5" fill="#cbd5e1" opacity="0.7" />
  <rect x="266" y="130" width="50" height="12" rx="6" fill="#a855f7" />
  <rect x="266" y="152" width="60" height="10" rx="5" fill="#e2e8f0" opacity="0.7" />
  <rect x="266" y="170" width="55" height="10" rx="5" fill="#cbd5e1" opacity="0.7" />
  <circle cx="104" cy="200" r="10" fill="#22c55e" />
  <circle cx="200" cy="200" r="10" fill="#38bdf8" />
  <circle cx="296" cy="200" r="10" fill="#a855f7" />
  <text x="200" y="48" text-anchor="middle" fill="#e5e7eb" font-family="Inter, Arial, sans-serif" font-size="18" font-weight="700">Xkairos Tech</text>
  <text x="200" y="270" text-anchor="middle" fill="#cbd5e1" font-family="Inter, Arial, sans-serif" font-size="14">Orcamentos | Cliente | Admin</text>
</svg>
