<svg width="400" height="300" viewBox="0 0 400 300" xmlns="http://www.w3.org/2000/svg">
  <defs>
    <linearGradient id="bg" x1="0%" y1="0%" x2="100%" y2="100%"><stop offset="0%" stop-color="#0B1F3B" /><stop offset="100%" stop-color="#0f172a" /></linearGradient>
    <linearGradient id="accent" x1="0%" y1="0%" x2="100%" y2="0%"><stop offset="0%" stop-color="#38bdf8" /><stop offset="100%" stop-color="#22c55e" /></linearGradient>
  </defs>
  <rect width="400" height="300" fill="url(#bg)" />
  <rect x="24" y="24" width="352" height="252" rx="18" fill="rgba(255,255,255,0.06)" stroke="#1f3b57" stroke-width="2" />

  <text x="200" y="44" text-anchor="middle" fill="#e5e7eb" font-family="Inter, Arial, sans-serif" font-size="18" font-weight="700">Manutencao e Suporte</text>

  <!-- Shield -->
  <path d="M200 82 L260 104 L252 172 C248 204 224 226 200 236 C176 226 152 204 148 172 L140 104 Z" fill="#0f172a" stroke="#38bdf8" stroke-width="3" />
  <path d="M200 102 L238 116 L232 166 C229 190 214 206 200 212 C186 206 171 190 168 166 L162 116 Z" fill="rgba(56,189,248,0.18)" />

  <!-- Wrench -->
  <path d="M174 188 L210 152 L222 164 L186 200 Z" fill="#22c55e" />
  <circle cx="180" cy="194" r="7" fill="#0f172a" stroke="#22c55e" stroke-width="3" />

  <!-- Status bars -->
  <rect x="90" y="210" width="80" height="20" rx="6" fill="rgba(255,255,255,0.14)" />
  <rect x="170" y="210" width="90" height="20" rx="6" fill="url(#accent)" />
  <rect x="260" y="210" width="60" height="20" rx="6" fill="rgba(255,255,255,0.14)" />
  <text x="215" y="224" text-anchor="middle" fill="#0f172a" font-family="Inter, Arial, sans-serif" font-size="11" font-weight="700">Online</text>

  <text x="200" y="248" text-anchor="middle" fill="#cbd5e1" font-family="Inter, Arial, sans-serif" font-size="11">Bugs ? Seguranca ? Performance</text>
</svg>
